<svg width="27" height="26" viewBox="0 0 27 26" fill="none" xmlns="http://www.w3.org/2000/svg">
<path fill-rule="evenodd" clip-rule="evenodd" d="M13.6107 17.3333C14.5307 17.3333 15.1441 16.4133 14.8107 15.5733L9.14407 1.16C8.86407 0.453333 8.19741 0 7.45074 0C6.70407 0 6.03741 0.453333 5.75741 1.16L0.0907393 15.5733C-0.242594 16.4133 0.384073 17.3333 1.29074 17.3333C1.82407 17.3333 2.30407 17 2.50407 16.4933L3.67741 13.3333H11.1974L12.3974 16.5067C12.5974 17 13.0774 17.3333 13.6107 17.3333ZM4.69074 10.6667L7.45074 3.30667L10.2107 10.6667H4.69074ZM23.9707 12.3867L14.1174 22.24L10.1574 18.28C9.63741 17.76 8.79741 17.76 8.27741 18.28C7.75741 18.8 7.75741 19.64 8.27741 20.16L13.1841 25.0667C13.7041 25.5867 14.5441 25.5867 15.0641 25.0667L25.8374 14.28C26.3574 13.76 26.3574 12.92 25.8374 12.4C25.3307 11.88 24.4774 11.88 23.9707 12.3867Z" fill="#22262A"/>
</svg>
