<svg width="24" height="24" viewBox="0 0 24 24" fill="none" xmlns="http://www.w3.org/2000/svg">
<path d="M12 0C5.37225 0 0 5.37225 0 12C0 18.6277 5.37225 24 12 24C18.6277 24 24 18.6277 24 12C24 5.37225 18.6277 0 12 0ZM22.5 11.994C22.5 12.3165 21.7478 12.816 20.52 13.293C20.5523 12.8678 20.571 12.4373 20.571 12C20.571 11.5613 20.5522 11.13 20.5192 10.7032C21.7462 11.1772 22.4993 11.6723 22.4993 11.988C22.5 11.9903 22.5 11.9917 22.5 11.994ZM12.012 22.5C12.012 22.5 12.0082 22.5 12.006 22.5C11.6835 22.5 11.184 21.7478 10.707 20.52C11.1322 20.5523 11.5627 20.571 12 20.571C12.438 20.571 12.87 20.5522 13.2968 20.5192C12.822 21.747 12.3278 22.5 12.012 22.5ZM12 19.0718C11.3857 19.0718 10.7873 19.029 10.2015 18.96C9.97875 18.1253 9.7845 17.142 9.63975 16.0335C10.4032 16.086 11.1915 16.1138 11.9992 16.1138C12.8077 16.1138 13.596 16.0853 14.3595 16.0335C14.2147 17.142 14.0213 18.1245 13.7993 18.9592C13.2135 19.0282 12.615 19.0718 12 19.0718ZM12 14.6145C11.1068 14.6145 10.2705 14.5785 9.48225 14.5178C9.4215 13.7303 9.3855 12.8932 9.3855 12C9.3855 11.1068 9.4215 10.2705 9.48225 9.48225C10.2697 9.4215 11.106 9.3855 11.9992 9.3855C12.8925 9.3855 13.7287 9.4215 14.5162 9.48225C14.577 10.2697 14.613 11.106 14.613 12C14.613 12.8932 14.577 13.7295 14.5162 14.5178C13.7302 14.5778 12.8932 14.6145 12 14.6145ZM1.5 12.012C1.5 12.0098 1.5 12.0082 1.5 12.006C1.5 11.6835 2.25225 11.184 3.48 10.707C3.447 11.1322 3.42825 11.5627 3.42825 12C3.42825 12.4387 3.447 12.87 3.48 13.2968C2.253 12.8228 1.5 12.3278 1.5 12.012ZM4.92825 12C4.92825 11.3857 4.971 10.7873 5.04 10.2015C5.87475 9.97875 6.858 9.7845 7.9665 9.63975C7.914 10.4032 7.88625 11.1915 7.88625 11.9992C7.88625 12.8077 7.91475 13.596 7.9665 14.3595C6.858 14.2155 5.87475 14.022 5.04 13.8C4.97175 13.2135 4.92825 12.615 4.92825 12ZM12 1.5015C12.3232 1.57725 12.819 2.2605 13.293 3.48C12.8678 3.44775 12.4373 3.42825 12 3.42825C11.5627 3.42825 11.1322 3.447 10.707 3.48C11.181 2.2605 11.6768 1.5765 12 1.5015ZM12 4.92825C12.6143 4.92825 13.2127 4.971 13.7977 5.03925C14.0205 5.874 14.2147 6.8565 14.3595 7.96575C13.596 7.91325 12.8078 7.8855 12 7.8855C11.1922 7.8855 10.4033 7.914 9.6405 7.96575C9.78525 6.8565 9.9795 5.87475 10.2022 5.03925C10.7872 4.97175 11.3857 4.92825 12 4.92825ZM16.0335 9.63975C17.142 9.7845 18.1245 9.978 18.9592 10.2C19.0282 10.7858 19.071 11.385 19.071 12C19.071 12.6143 19.0282 13.2128 18.9592 13.7985C18.1245 14.0213 17.1413 14.2155 16.0328 14.3602C16.0853 13.5967 16.113 12.8085 16.113 12.0007C16.1145 11.1915 16.086 10.4032 16.0335 9.63975ZM20.2965 9.03225C20.1923 8.45925 20.067 7.89825 19.9065 7.362C20.7787 8.0355 21.462 8.82 21.9075 9.68025C21.438 9.44475 20.895 9.22875 20.2965 9.03225ZM18.6795 8.58225C17.823 8.385 16.8833 8.22825 15.8895 8.11125C15.7725 7.1175 15.6158 6.17775 15.4185 5.32125C16.2893 5.52375 17.1135 5.79525 17.8643 6.13725C18.2048 6.88725 18.4763 7.7115 18.6795 8.58225ZM14.9685 3.7035C14.772 3.105 14.556 2.562 14.3205 2.0925C15.1815 2.538 15.9652 3.22125 16.6387 4.0935C16.1017 3.933 15.5408 3.80775 14.9685 3.7035ZM9.6795 2.0925C9.444 2.562 9.228 3.105 9.0315 3.7035C8.4585 3.80775 7.8975 3.933 7.36125 4.0935C8.03475 3.22125 8.81925 2.538 9.6795 2.0925ZM8.58225 5.3205C8.385 6.177 8.22825 7.11675 8.11125 8.1105C7.1175 8.2275 6.17775 8.38425 5.32125 8.5815C5.52375 7.71075 5.79525 6.8865 6.13725 6.13575C6.88725 5.79525 7.71075 5.52375 8.58225 5.3205ZM3.7035 9.03225C3.105 9.22875 2.562 9.44475 2.0925 9.68025C2.538 8.81925 3.22125 8.0355 4.0935 7.362C3.933 7.89825 3.80775 8.45925 3.7035 9.03225ZM2.0925 14.3198C2.562 14.5553 3.105 14.7713 3.7035 14.9678C3.80775 15.5408 3.933 16.1018 4.0935 16.638C3.22125 15.9653 2.538 15.1808 2.0925 14.3198ZM5.3205 15.4177C6.177 15.615 7.11675 15.7717 8.1105 15.8887C8.2275 16.8825 8.38425 17.8223 8.5815 18.6788C7.71075 18.4763 6.8865 18.2047 6.13575 17.8627C5.79525 17.1127 5.52375 16.2892 5.3205 15.4177ZM9.0315 20.2965C9.228 20.895 9.444 21.438 9.6795 21.9075C8.81925 21.462 8.03475 20.7787 7.36125 19.9065C7.89825 20.067 8.45925 20.1923 9.0315 20.2965ZM14.3205 21.9075C14.556 21.438 14.772 20.895 14.9685 20.2965C15.5415 20.1923 16.1025 20.067 16.6387 19.9065C15.9652 20.7787 15.1807 21.462 14.3205 21.9075ZM15.4177 18.6795C15.615 17.823 15.7717 16.8833 15.8887 15.8895C16.8825 15.7725 17.8223 15.6158 18.6788 15.4185C18.4763 16.2893 18.2047 17.1135 17.8627 17.8643C17.1127 18.2048 16.2892 18.4763 15.4177 18.6795ZM20.2965 14.9678C20.895 14.7713 21.438 14.5553 21.9075 14.3198C21.462 15.1808 20.7787 15.9645 19.9065 16.638C20.067 16.1018 20.1923 15.5408 20.2965 14.9678ZM20.664 6.0795C20.1465 5.69325 19.5787 5.343 18.969 5.031C18.657 4.4205 18.3067 3.8535 17.9205 3.336C18.996 4.07325 19.9268 5.004 20.664 6.0795ZM6.0795 3.336C5.69325 3.8535 5.343 4.42125 5.031 5.031C4.4205 5.343 3.8535 5.69325 3.336 6.0795C4.07325 5.004 5.004 4.07325 6.0795 3.336ZM3.336 17.9205C3.8535 18.3067 4.42125 18.657 5.031 18.969C5.343 19.5795 5.69325 20.1465 6.0795 20.664C5.004 19.9268 4.07325 18.996 3.336 17.9205ZM17.9205 20.664C18.3067 20.1465 18.657 19.5795 18.969 18.969C19.5795 18.657 20.1465 18.3067 20.664 17.9205C19.9268 18.996 18.996 19.9268 17.9205 20.664Z" fill="white"/>
</svg>
